<?xml version="1.0" encoding="UTF-8"?>
<svg id="Layer_2" data-name="Layer 2" xmlns="http://www.w3.org/2000/svg" viewBox="0 0 322.31 65.97">
  <defs>
    <style>
      .cls-1 {
        fill: #fff;
      }

      .cls-2 {
        fill: #af1221;
      }
    </style>
  </defs>
  <g id="Layer_1-2" data-name="Layer 1">
    <g>
      <rect class="cls-2" width="99.58" height="61.83"/>
      <g>
        <path class="cls-1" d="M63.82,19.04c.2.35.2.69.01,1.02-.19.33-.5.47-.92.44-.8-.1-1.58-.18-2.32-.25s-1.36-.09-1.84-.08c-.89.02-1.71-.02-2.48-.1-.94-.13-2.33-.18-4.19-.15-8.6.38-17.45,1.21-26.56,2.48-.1.02-.18.03-.23.05-.05,0-.09,0-.12.01-.03,0-.08.01-.15.01v.2c-.02.12-.07.32-.16.62s-.19.58-.29.87c-.12.33-.19.57-.23.7-.03.1-.06.19-.08.28-.18.62-.31,1.24-.38,1.86-.02.33-.03.98-.04,1.93,0,.95-.01,1.9-.01,2.83s0,1.56-.03,1.88v1.41c0,.28,0,.58.03.88,0,.74,0,1.46.02,2.18v.78c.02.33.03.68.03,1.03.03.52.07,1.04.1,1.56v.25c.02.17.03.33.05.5.02.22.03.44.03.65.02.15.03.31.05.48v.33c.07.75.11,1.51.13,2.28.03.6.05,1.2.05,1.81v.9c0,.32,0,.64.03.95,0,.3,0,.58.02.85v.12c.02.25.03.49.03.73.02.29.03.56.03.83v1c0,.1,0,.2.02.3v1.2c.02.55.05,1.09.1,1.63.1.74.13,1.48.08,2.23-.02.17-.02.33,0,.48.02.08.03.16.03.23.02.2.03.38.05.55,0,.18,0,.37-.01.56,0,.19-.03.37-.06.54-.2.7-.18,1.38.05,2.03.08.28.17.54.25.78.08.22.17.46.25.73.03.1.07.22.1.35.03.1.07.19.1.28-.05.05-.09.11-.13.17-.05.08-.11.16-.17.24-.07.08-.14.12-.23.14-.12.03-.23.03-.33,0-.1-.03-.21-.08-.33-.15-.02-.02-.04-.03-.08-.05-.4-.2-.83-.43-1.28-.68-.13-.08-.27-.16-.4-.23-.1-.07-.21-.13-.33-.18-.45-.27-.9-.52-1.35-.75-.18-.08-.38-.15-.58-.2-.03-.02-.07-.03-.1-.05-.05-.02-.1-.02-.15-.02-.12-.03-.23-.08-.35-.13-.25-.15-.42-.33-.5-.54-.08-.21-.13-.46-.13-.74.57-.13,1.15-.27,1.73-.4,0-.02,0-.02.03-.02,0-.02,0-.03.03-.05.42-.67.58-1.39.48-2.16v-.03c-.02-.23-.03-.46-.03-.68,0-.13,0-.26-.02-.38v-.3c.02-.82.02-1.63.02-2.43,0-.49,0-.98.03-1.48,0-.08,0-.18.03-.28v-.05c.02-.12.02-.23.02-.35,0-.43,0-.86-.02-1.28-.02-.9,0-1.8.08-2.68.05-.63.08-1.27.08-1.91-.02-1.07.09-2.14.33-3.21.12-.55.15-1.11.1-1.68v-.75c.03-2.01.08-4.01.15-6.02,0-.65-.02-1.3-.05-1.93,0-.22,0-.43-.03-.65-.02-.52-.02-1.35-.01-2.48,0-1.14.04-2.27.1-3.4s.15-1.95.26-2.47c.08-.38.08-.78-.03-1.18-.03-.15-.12-.28-.26-.39-.14-.11-.29-.17-.44-.19-.47-.05-.92-.08-1.35-.08h-.8c-.1,0-.21,0-.31.01-.11,0-.21.01-.31.01-.15.02-.31.03-.49.03h-1.39c-.07,0-.12,0-.17-.03-.05,0-.11,0-.18-.01-.07,0-.16-.02-.28-.04-1.17-.02-2.24.38-3.21,1.18-.02.02-.03.03-.05.05-.02,0-.03,0-.05.02-.03.03-.07.06-.1.08-.07.07-.13.13-.2.19-.07.06-.13.14-.2.24-.3.42-.73.54-1.28.38-.02,0-.03,0-.04-.02,0-.02-.02-.03-.04-.05,0-.02,0-.03-.03-.05-.12-.13-.22-.28-.3-.43-.17-.4-.33-.79-.48-1.18-.05-.12-.1-.23-.15-.35-.05-.1-.09-.21-.13-.33-.12-.27-.23-.53-.33-.8-.12-.25-.26-.48-.43-.68-.17-.17-.26-.32-.29-.46-.02-.14.04-.31.19-.49h.03s.07,0,.1.03c.13.02.28.05.43.1.07.02.15.04.25.08h.05c.42.17.85.2,1.3.1.07,0,.11,0,.14.01.03,0,.05.02.09.04.05.02.1.03.15.03.05.02.09.03.13.03.18.05.38.09.58.12.3.07.6.13.9.2.07,0,.13,0,.18.02h.05c.33.07.68.12,1.03.15h.2c.28.02.59.02.93.02s.63,0,.88-.02c.27-.02.5-.05.69-.09s.41-.1.64-.19c.2-.05.38-.1.55-.14s.35-.07.55-.09c.08,0,.18,0,.3-.03.15,0,.3,0,.45-.03.32-.03.63-.06.93-.08.13-.02.25-.02.36-.02s.23,0,.36-.03c.27-.02.54-.03.83-.03h.12s.06-.09.08-.12c.02-.02.03-.03.05-.05.02-.02.03-.03.05-.03,0-.02,0-.03.03-.05.08-.08.14-.17.17-.28.1-.28.19-.58.28-.88.02-.05.03-.09.03-.13.23-.7.34-1.41.33-2.13-.07-.97-.18-1.93-.33-2.88v-.05c-.02-.12-.04-.24-.08-.38-.23-.94-.79-1.66-1.66-2.16-.47-.3-.77-.74-.9-1.3.17-.03.33-.06.48-.08.1-.02.2-.03.3-.03h.05c.25.02.49,0,.73-.05.52-.12,1.04-.14,1.58-.08h.05c.18.02.37.03.55.05.97,0,1.91-.07,2.83-.2.42-.05.74-.03.97.06s.46.3.69.64c-.03.02-.07.04-.1.08-.02.02-.03.03-.05.05-.23.2-.44.43-.63.68v.02c-.43.6-.79,1.23-1.08,1.88-.18.42-.44.72-.75.9-.52.28-.75.68-.7,1.18.02.38.03.74.03,1.08,0,.1,0,.19.02.28,0,.1,0,.19-.02.28-.03.13-.03.29,0,.45.07.3.07.61,0,.93-.07.29-.08.57-.05.85.03.28.22.55.55.8.03.02.07.04.1.08.07.08.18.17.34.26.16.09.4.15.73.18s.77-.01,1.34-.11c.37-.05,1.27-.15,2.7-.3,1.43-.15,2.92-.3,4.47-.46,1.55-.16,2.67-.26,3.37-.31.17-.02.3-.01.4.01.1.03.19.06.28.11.13.08.34.15.63.2s.76.04,1.43-.03c1.27-.15,3-.41,5.19-.78,1.56-.27,3.05-.51,4.48-.71s2.54-.34,3.32-.39c.82-.05,1.53-.08,2.12-.1s1.17-.03,1.74-.03h1.32s.08,0,.1-.01c.02,0,.05-.01.09-.01h.02s0-.03.01-.03.03,0,.05-.01c.03,0,.06-.01.11-.01.03,0,.08,0,.13-.02h.04s.03,0,.06-.03c.05,0,.1,0,.15-.03.03,0,.08,0,.13-.02-.03-.18-.06-.37-.08-.55-.02-.08-.03-.17-.03-.28.87.03,1.61.37,2.21,1,.37.45.7.94,1,1.46.03.07.07.13.1.18Z"/>
        <path class="cls-1" d="M49.84,58.24c.05,0,.09.02.13.06.03.04.04.09.03.14-.17.33-.41.57-.71.7-.31.13-.65.21-1.02.23-.17.02-.33.03-.5.05-.25,0-.5.02-.75.05-.23.03-.46.09-.68.18-.05.02-.1.03-.15.05-.12.05-.23.08-.35.1-.17,0-.31-.05-.41-.14-.11-.09-.21-.21-.29-.34-.23-.37-.47-.73-.7-1.08-.22-.35-.44-.7-.68-1.05-.23-.38-.48-.77-.73-1.15-.05-.07-.1-.13-.15-.2-.35-.6-.77-1.15-1.25-1.66-.15-.12-.31-.22-.48-.3-.02-.02-.03-.02-.05-.02,0-.02,0-.03-.03-.03-.13-.05-.24-.13-.33-.25-.05-.12-.08-.24-.08-.38-.02-.02-.02-.04-.02-.08,0-.08,0-.16-.03-.23,0-.08,0-.17-.03-.25,0-.1,0-.2-.02-.3-.05-.6-.16-1.2-.33-1.81-.27-.74-.68-1.38-1.23-1.93-.38-.4-.77-.79-1.15-1.15-.13-.12-.26-.24-.38-.38-.12-.1-.23-.2-.33-.3-.07-.05-.12-.1-.18-.15v.15s0,.1.03.15c.03.6.12,1.2.25,1.81.02.05.03.1.05.15.02.08.03.17.05.25.02.08.03.15.05.2.03.12.06.25.08.4,0,.35-.05.7-.15,1.05-.12.45-.15.9-.1,1.35.05.18.08.35.09.5,0,.15.01.31.01.48v.7s.03.11.03.23c.03.27.07.59.1.98.03.38.03.67,0,.85-.92.7-1.92,1.21-3.01,1.53-.27.07-.42.03-.46-.1-.04-.13-.01-.28.09-.43.18-.28.35-.62.5-1.02.15-.39.23-.71.25-.94.05-.35.09-.72.13-1.1.05-.64.1-1.14.15-1.5v-.08c.02-.15.03-.26.04-.33,0-.07,0-.12,0-.15,0-.03-.02-.08-.04-.13-.03-.05-.08-.14-.13-.28.03-.13.07-.26.1-.38.1-.32.19-.63.28-.95.03-.17.03-.33,0-.5-.17-.92-.26-1.85-.28-2.79-.15.05-.29.08-.43.1-.12.02-.24.04-.38.08-.38.13-.75.28-1.1.43-.38.18-.77.33-1.17.45-.39.12-.82.13-1.27.05-.05,0-.08-.02-.1-.06-.02-.04-.02-.08,0-.11.18-.22.42-.4.7-.54.28-.14.58-.26.88-.36.27-.1.5-.2.69-.3s.31-.22.34-.35c.03-.08.14-.18.31-.29s.38-.22.62-.34c.23-.12.45-.21.65-.28,0-.02,0-.02.03-.02.1-.03.19-.07.28-.1v-.58c-.02-.65-.06-1.3-.13-1.96v-.08c-.02-.07-.02-.13,0-.2.07-.25.08-.48.04-.7-.04-.22-.1-.43-.19-.65-.05-.12-.1-.23-.15-.35-.15-.65-.17-1.28-.05-1.88.02-.15.03-.3.05-.45s.03-.29.05-.43c.08-.42.09-.84.03-1.25-.02-.15-.03-.3-.03-.45v-.3c-.05-.57-.09-1.14-.12-1.71,0-.13-.03-.25-.08-.35-.08-.1-.19-.18-.33-.23-.1-.03-.19-.08-.28-.15-.1-.13-.16-.28-.17-.43-.03-.1-.07-.19-.1-.28-.03-.08-.09-.15-.18-.2-.13-.08-.28-.15-.45-.2-.2-.05-.38-.14-.55-.28-.42-.35-.67-.8-.75-1.35,0-.07.02-.11.06-.13.04-.02.09-.02.15,0,.06.02.09.06.09.13h.03c.22.12.43.23.65.33.55.2,1.12.33,1.71.4.3.03.59.05.85.05h.05c.08.02.18.03.28.03.18-.02.36,0,.53.02.13.03.24.08.33.13.08.05.17.12.25.23.03.03.07.08.1.12.05.07.11.13.19.2.08.07.17.11.29.12.2,0,.41-.02.63-.08.08-.03.17-.05.25-.05.03-.02.07-.03.1-.03.27-.07.54-.1.8-.1,1.25,0,2.47.23,3.64.68,1.02.32,1.99.75,2.91,1.3.87.52,1.5,1.24,1.88,2.16.15.43.12.85-.08,1.25-.02.03-.07.15-.15.35-.13.32-.31.73-.53,1.23-.22.5-.43.97-.64,1.41s-.36.71-.46.83c-.77.8-1.67,1.41-2.71,1.83-.27.13-.54.25-.83.35-.3.13-.59.27-.88.4-.55.25-1.08.54-1.58.85-.4.25-.82.45-1.25.6.28.18.54.38.78.6.07.05.13.12.2.2.2.18.4.36.6.53.2.13.4.26.6.38.15.07.29.15.43.25.52.32.84.77.95,1.35.05.25.08.51.1.78,0,.38.06.75.18,1.1.37.84.84,1.6,1.43,2.28.22.29.43.59.65.9.35.5.63,1.04.85,1.63v.02c.12.3.25.59.41.85.16.27.38.49.67.65.08.05.17.08.25.1.18.07.35.18.5.35.03.05.07.1.1.15.05.05.1.11.15.18.1.12.23.19.4.23.72.2,1.46.34,2.21.43ZM36.65,37.9c-.02.12-.02.24-.02.38-.03.27-.06.54-.08.8.02.2.04.4.08.6.03.13.05.27.05.4.12,1.17.21,2.35.28,3.54-.07.15-.09.31-.08.48.02.08.02.17.02.25.45-.22.89-.44,1.33-.68.2-.12.4-.24.6-.38.28-.17.58-.33.88-.5.72-.35,1.46-.68,2.21-.98.23-.08.48-.16.73-.23.55-.1,1.04-.33,1.46-.68.43-.52.74-1.14.93-1.86.07-.22.14-.42.23-.6.12-.42.12-.84.03-1.25,0-.17.02-.32.08-.45.02-.05.03-.12.05-.2.03-.27-.05-.47-.26-.61-.21-.14-.42-.25-.64-.34-.02-.02-.03-.03-.05-.03-.49-.2-.98-.36-1.48-.48-.52-.12-1.04-.22-1.58-.3s-1.06-.18-1.58-.3c-.49-.12-.96-.27-1.43-.45-.15-.07-.31-.13-.48-.2-.35-.18-.71-.33-1.08-.43-.02,0-.03,0-.05-.02h-.05c.02.15.03.29.05.43.03.3.06.6.08.9,0,.43-.03.87-.1,1.3,0,.02,0,.04-.02.08-.05.43-.07.87-.05,1.3-.02.08-.03.18-.03.28v.23ZM41.27,38c.02.13,0,.26-.03.38-.07.23-.2.43-.39.59s-.4.28-.61.36c-.13.07-.27.13-.4.18-.02,0-.04,0-.08.03-.1.05-.2.08-.3.1-.07,0-.12-.02-.15-.05-.03-.03-.07-.08-.1-.15-.03-.1-.07-.22-.1-.35-.05-.25-.05-.51,0-.78.08-.22.22-.42.4-.6l.02-.03s.03-.03.03-.05c.07-.08.14-.16.23-.23.1-.05.21-.06.33-.02.02-.02.03-.02.05,0,.17.07.33.12.5.17l.03.03c.12.03.23.08.33.15.12.07.2.16.25.28Z"/>
        <path class="cls-1" d="M53.48,58.92c.03.35.07.7.1,1.05.07.75.12,1.5.18,2.26,0,.13,0,.27.02.4.02.28.02.54.01.75,0,.22-.07.38-.19.48-.87.17-1.68.36-2.43.58s-1.46.56-2.13,1.03c-.67-.7-.64-1.4.08-2.11.18-.17.33-.36.44-.59s.15-.5.11-.82c0-.13,0-.28.02-.43.02-.08.03-.17.03-.25.13-.02.28-.03.43-.05.08-.02.18-.03.3-.05.13-.3.27-.62.4-.95.38-.84.74-1.7,1.08-2.58.1-.37.14-.77.12-1.2v-.43c.02-.32.02-.64,0-.98v-.63c.02-.12.03-.23.03-.33v-.35s.02-.35.05-.92.08-1.24.12-2.04c.05-.8.1-1.59.15-2.37.05-.78.1-1.41.15-1.89.1-.97.15-2.12.15-3.44.03-2.06.05-4.12.05-6.2,0-.5,0-1.01-.02-1.53-.02-.84-.02-1.68,0-2.53.02-.23.07-.47.16-.71s.21-.44.34-.59c.32-.33.64-.59.98-.78.12-.08.23-.17.35-.25.08.12.17.23.25.33.17.2.31.39.43.58.13.2.26.41.38.63.05.1.11.21.18.33-.12.23-.23.46-.33.68-.25.5-.48,1-.68,1.48-.17.4-.27.83-.3,1.28-.08,2.58-.14,5.15-.18,7.73-.1,1.59-.18,2.96-.25,4.13-.07,1.16-.13,2.34-.2,3.52-.07,1.19-.12,2.2-.17,3.04-.02.3-.03.59-.03.88,0,.17,0,.33-.03.5-.02.55-.03,1.11-.05,1.68-.02.5-.03,1-.05,1.5-.02.02-.02.04-.02.08-.02.03-.03.07-.03.1Z"/>
        <path class="cls-1" d="M66.85,36.55c.62.32,1.24.68,1.86,1.08.95.6,1.86,1.27,2.71,2.01.47.45.89.94,1.28,1.46.17.22.33.43.5.63.33.38.66.78.98,1.18.15.22.31.43.48.65.28.42.59.81.93,1.18.35.38.46.79.33,1.2-.1.37-.11.73-.03,1.08.05.23.07.47.05.7-.03.37-.09.73-.18,1.08-.07.35-.15.7-.25,1.05-.05.22-.1.43-.15.63-.07.27-.12.53-.17.78-.1.45-.21.9-.33,1.35-.3,1.22-.87,2.3-1.71,3.24-.4.49-.93.85-1.58,1.1-.92.33-1.85.59-2.78.75-.49.08-.97.18-1.46.3-.8.17-1.61.12-2.41-.15-.2-.07-.4-.13-.6-.18-1.1-.3-2.18-.67-3.24-1.1-1.25-.5-2.17-1.38-2.76-2.63-.07-.18-.1-.37-.1-.55v-1.3c.02-.62.02-1.23,0-1.83-.03-1.2-.08-2.41-.13-3.61,0-.25,0-.5-.02-.75,0-.07-.02-.13-.05-.2-.02-.03-.03-.08-.05-.13-.07-.33-.02-.66.15-.98.52-.9,1.09-1.76,1.71-2.58.12-.15.2-.33.25-.53.03-.15.08-.29.15-.43.08-.13.16-.27.23-.4.18-.45.43-.82.75-1.1.37-.3.71-.64,1.03-1,.25-.27.51-.52.78-.75.5-.45,1.04-.84,1.61-1.18.27-.13.58-.23.93-.3.18-.03.37-.08.55-.15l.75.4ZM73.6,44.57c-.25-.43-.53-.86-.83-1.28-.12-.18-.24-.37-.38-.55-.42-.64-.87-1.25-1.34-1.83-.48-.58-1.04-1.09-1.69-1.5-.15-.08-.29-.18-.43-.3-.33-.28-.73-.48-1.18-.6-.38-.05-.77-.1-1.15-.15-.08,0-.17,0-.25-.02-.45-.07-.86.04-1.23.33-.05.03-.11.08-.17.12-.39.32-.8.58-1.25.78-.55.25-.94.61-1.18,1.08-.59,1.15-1.1,2.33-1.56,3.54-.27.77-.5,1.55-.7,2.33-.08.35-.18.7-.28,1.05-.35,1.04-.4,2.07-.15,3.11.3.95.34,1.9.12,2.83-.02.12,0,.23.05.35v.05c.2.55.54.96,1.03,1.23,1.37.95,2.89,1.49,4.56,1.6.52.02,1.03.02,1.53,0,.32,0,.63-.07.93-.2.6-.27,1.16-.6,1.68-1,.62-.5,1.16-1.08,1.63-1.73.67-1.02,1.28-2.08,1.83-3.19.08-.15.17-.3.25-.45.25-.43.46-.88.63-1.33.17-.45.21-.94.13-1.46.1-1.02-.1-1.96-.6-2.81ZM67.73,47.06c-.12.25-.23.5-.33.75-.15.33-.31.54-.49.63-.18.08-.43.05-.76-.1-.44-.2-.86-.43-1.28-.68-.15-.08-.23-.21-.24-.38,0-.17.02-.33.1-.48s.17-.25.29-.3c.52-.22,1.05-.37,1.61-.45.58-.08,1.01.13,1.28.65-.07.12-.13.23-.18.35Z"/>
        <path class="cls-1" d="M116.07,23.41c.38,1.63.48,3.33.29,5.09-.19,1.76-.49,3.42-.89,4.98v.1c.23,1.72.15,3.13-.24,4.21-.39,1.09-1.27,2.16-2.62,3.21-.25.2-.49.39-.73.58-.65.5-1.3,1.04-1.96,1.63-.55.52-1.15.95-1.81,1.3-.02,0-.03,0-.03.03h-.02c-2.28.79-4.6,1.41-6.97,1.88-.52.12-1.05.23-1.58.35l-.02.03s-.03,0-.05.01c-.02,0-.03.01-.05.01v.15c-.17,2.88-.06,5.71.33,8.5.38,2.79.98,5.57,1.78,8.33-.54.43-1.15.66-1.86.68h-.13c-.07,0-.13,0-.2.02h-.05s-.06,0-.08.03c-.23.18-.46.38-.68.6-.02.02-.03.03-.05.05-.02.02-.04.04-.08.08-.05.05-.1.1-.15.15-.05.05-.09.08-.12.1-.12.07-.22.13-.3.2-.1.07-.2.13-.3.18-.1.05-.23.08-.38.08-.17,0-.34-.07-.53-.2-.18-.13-.33-.28-.45-.43.52-.64.86-1.3,1.02-1.99.16-.69.23-1.45.21-2.27v-.35c.08-2.66,0-5.3-.25-7.93-.05-.54-.09-1.07-.12-1.61-.05-.77-.09-1.57-.13-2.41v-.65c-.1.08-.2.18-.3.3-.07.07-.12.13-.15.18-.8.85-1.71,1.53-2.73,2.03h-.02c-.17.07-.31.13-.44.19-.12.06-.28.14-.46.24-.07.03-.14.08-.23.13-.22.13-.45.25-.7.35-.25.1-.49.13-.73.08-.03,0-.05-.01-.06-.04s0-.05.01-.06c0-.02,0-.03.01-.05,0-.02,0-.03-.01-.05,1.76-2.16,3.68-4.16,5.77-6l.03-.03s.03,0,.04-.01c0,0,.01-.02.01-.04.02,0,.03,0,.03-.03v-.05l-.03-.03v-.12c-.02-1.19.03-2.36.13-3.51.1-1.15.39-2.29.88-3.41.53-1.44.65-3.35.35-5.73s-.71-4.31-1.23-5.78c-.02-.02-.03-.04-.03-.08-.02-.03-.03-.07-.04-.1,0-.03-.02-.06-.04-.08-.03,0-.07,0-.11-.01-.04,0-.08-.01-.11-.01-1.3.05-2.57.29-3.79.73-1.27.37-2.56.61-3.86.73l-.02-.03s-.06-.03-.08-.05c-.02-.02-.03-.04-.03-.08v-.02s0-.03.01-.04c0,0,.02-.01.04-.01v-.02c1.94-1.27,4.04-2.18,6.3-2.73.27-.07.54-.13.8-.2.08-.02.17-.03.25-.05.05-.02.12-.03.2-.05.07,0,.13,0,.2-.03-.02-.03-.04-.08-.08-.13-.03-.1-.07-.18-.1-.25-.2-.5-.4-1-.6-1.51-.1-.3-.21-.58-.33-.85-.15-.4-.31-.79-.48-1.18-.12-.3-.23-.6-.35-.9-.22-.55-.48-1.08-.8-1.58-.07-.13-.14-.27-.23-.4-.18-.27-.34-.54-.46-.83-.12-.28-.15-.59-.09-.93.02-.12.07-.19.15-.23s.18-.04.3-.03h.1c1.15,0,2.22.33,3.21.98l.03.02h.03l.02.03c1.2.62,1.95,1.25,2.25,1.89.29.64.45,1.58.46,2.82.02.08.03.17.03.25.03.6.09,1.2.18,1.81.02.05.03.1.03.15,0,.08,0,.15.02.2h.18c.08-.02.14-.03.18-.03.95-.18,1.85-.47,2.68-.87.84-.39,1.66-.82,2.48-1.29,1.34-.82,2.76-1.47,4.26-1.96.43-.1.88-.12,1.33-.05.1.02.19.03.28.03.52.03.98-.09,1.38-.38.12-.08.23-.14.35-.18.12-.03.22-.04.3-.03.02.02.03.03.05.03h.05-.03c1.32,1.19,2.17,2.6,2.56,4.23ZM113.8,29.57c.06-1.99-.4-3.9-1.37-5.72-.35-.62-.84-1.03-1.48-1.24-.64-.21-1.29-.23-1.96-.06h-.03s0-.02,0,0c-.25.07-.46.11-.63.12-.15.02-.3.05-.45.1-.15.05-.34.16-.58.33-.74.5-1.6,1-2.6,1.48-1,.48-1.92.92-2.77,1.3-.12.05-.23.1-.35.15-.12.05-.22.09-.3.13-.12.07-.21.11-.28.14-.07.03-.13.05-.19.06-.06.02-.16.04-.29.08-.03.02-.08.03-.13.05h-.12s-.04,0-.08.02v.25c-.08,3.91-.24,7.83-.48,11.74-.1,1.84-.2,3.68-.3,5.52v.28c.05,0,.1,0,.15.03h.17c1.12.05,2.15-.01,3.07-.19s1.83-.61,2.72-1.29c-.02.02-.03.04-.05.06-.02.03-.03.05-.05.06l-.04.04s0,0,.01-.02c.02-.03.05-.07.11-.13l.26-.26c.45-.35,1-.54,1.66-.58.74-.03,1.5-.31,2.31-.83.47-.38.92-1.05,1.37-1.99.44-.94.85-1.87,1.22-2.77.13-.37.27-.69.4-.98v-.03h.03c.62-1.91.96-3.85,1.02-5.84ZM104.98,32.93h.03s.02,0,.02-.03c.4-.22.84-.35,1.3-.4h.1c.13,0,.26,0,.38.03h.08c.13.03.26.08.38.13.12.05.22.13.3.25.1.15.16.34.18.58l.02.03c0,.08,0,.18.01.29,0,.11,0,.21-.04.29-.02.08-.06.15-.13.21s-.13.1-.2.14l-.08.08s-.03,0-.05.03-.03.03-.05.03c-.23.17-.49.29-.75.38-.52.18-1.01.17-1.48-.05-.38-.2-.59-.5-.63-.9-.02-.05-.02-.09,0-.12v-.1s0-.03.01-.05c0-.02.01-.03.01-.05.08-.33.27-.57.55-.7h.03v-.03Z"/>
        <path class="cls-1" d="M120.48,32.38c.08-.05.15-.07.2-.05.18.05.35.06.51.02.16-.03.31-.09.46-.17.12-.05.23-.09.35-.13.32-.1.42-.29.3-.58.28-.2.51-.3.68-.3s.33.12.5.35c.3.35.64.58,1.02.7.38.12.77.19,1.19.23.05.02.11.03.18.03.53.07,1.07.15,1.61.25.28.03.56.08.83.12.1.02.21.03.33.03.03,0,.08,0,.13.02.28.02.57.04.85.08.69.08,1.38.14,2.08.17.32,0,.63-.06.95-.17.07-.02.12-.03.18-.05.47-.17.95-.21,1.46-.12.18.03.4,0,.65-.13.13-.05.28-.1.43-.15.1.07.24.15.43.25.13.07.27.14.4.23-.03.18-.06.36-.08.53-.08.4-.13.79-.15,1.18,0,.25.04.5.12.75.02.08.03.17.05.25.03.1.07.2.1.3.02.05.03.09.05.12-.22.22-.43.32-.65.31-.22,0-.44-.06-.65-.16-.02-.02-.04-.03-.08-.03-.52-.2-1.04-.41-1.56-.63-.35-.15-.7-.29-1.05-.43-.18-.07-.36-.14-.53-.23-.59-.25-1.18-.46-1.78-.63-.79-.17-1.59-.27-2.41-.3-1.05-.08-2.11-.13-3.16-.15-.17.02-.33.06-.5.12-.07.02-.13.03-.2.05-.05.35-.09.69-.13,1.03-.12.74-.18,1.46-.18,2.16s.04,1.35.13,2.03c.05.45.08.9.1,1.36.03.55.04,1.1.02,1.66v2.13c.08.03.18.07.28.1.18.08.38.15.6.2.72.1,1.44.2,2.16.3.27.03.53.08.78.12h.17c.35.02.7.03,1.05.05.8.02,1.61.05,2.41.1.49.03.96.09,1.43.18.25.03.5.07.75.1h.25c.12,0,.23,0,.33.02.05,0,.11,0,.17.03.2.02.39.06.56.14.18.08.32.21.44.41.08.13.19.24.33.33.07.03.12.08.15.13-.13.35-.28.72-.43,1.1-.1.12-.23.16-.38.14s-.3-.09-.45-.19c-.18-.12-.37-.24-.55-.38-.42-.28-.84-.57-1.28-.85-.07-.03-.15-.06-.26-.09-.11-.03-.18-.02-.21.01-.15.13-.3.21-.46.23s-.31,0-.46-.03c-.05,0-.1,0-.15-.02-.28-.02-.56-.05-.83-.1-.3-.07-.6-.12-.9-.15-1.09-.08-2.18-.13-3.29-.13-.5,0-1.02.03-1.56.1l-.75.05c-.03.08-.06.17-.08.25-.18.45-.25.95-.2,1.5.03.3,0,.62-.08.95-.02.13-.03.27-.05.4-.02.03-.02.08-.02.13-.05.37-.11.74-.18,1.1-.05.2-.08.41-.1.63-.03.49-.18.95-.43,1.41-.25.49-.43,1.01-.53,1.58-.02.13-.04.27-.08.4-.08.33-.15.67-.2,1-.05.32-.12.63-.2.93-.05.28.04.46.28.53.22.08.43.13.65.15h.05c.62-.02,1.23.07,1.83.25.18.05.38.07.58.05.13-.02.26-.02.38,0,.27.03.53.07.78.1.32.05.64.09.95.13.52.05,1.04.06,1.56.02.45-.03.78.14.98.53.17.27.4.38.7.35.15,0,.31,0,.48.03.28.02.56,0,.83-.03.42-.08.83-.22,1.23-.4.18-.07.33-.43.45-1.1.37-.03.63,0,.8.11.17.11.32.34.45.69.18.4.39.79.63,1.18.12.17.18.32.18.46s-.08.28-.25.41c-.17.12-.3.26-.4.43-.17.23-.38.38-.63.44-.25.06-.48.06-.68.01-1.34-.25-2.68-.41-4.04-.48-.2-.02-.41-.03-.63-.05-.7-.05-1.41-.12-2.11-.2-.64-.08-1.26-.15-1.88-.2-.47-.03-.93-.04-1.38-.03-.29,0-.57,0-.85-.02-.25,0-.51-.03-.78-.08-.37-.08-.65.08-.85.48-.08.17-.18.34-.28.53-.03.07-.07.13-.1.2-.03,0-.06,0-.08.02-.17.02-.33.02-.49.01-.16,0-.31-.08-.44-.21,0-.02,0-.03-.03-.05-.12-.12-.2-.21-.25-.29-.05-.08-.07-.16-.05-.24.02-.08.06-.21.13-.38v-.05c.12-.32.19-.64.23-.98v-.08c.05-.4.1-.81.15-1.23.02-.18.04-.38.08-.58.22-.12.37-.28.45-.5.08-.22.14-.45.18-.7,0-.03,0-.06.03-.08.05-.37.12-.73.2-1.08.07-.33.13-.68.2-1.03v-.05c.07-.32.12-.64.15-.95.07-.62.12-1.24.15-1.86.02-.47.03-.94.05-1.43.02-.87.06-1.74.13-2.61.17-1.59.26-3.18.28-4.77,0-.3.03-.6.1-.9.03-.17.07-.33.1-.48.03-.25.07-.5.1-.75.1-.62.17-1.25.23-1.88.03-.63.04-1.26.03-1.88v-1.2c0-.27-.09-.5-.28-.7-.33-.38-.66-.79-.98-1.23-.13-.18-.28-.38-.43-.58.08-.02.15-.03.2-.05ZM121.01,58.55c.5.47.95.55,1.33.25-.49-.54-.93-.62-1.33-.25Z"/>
        <path class="cls-1" d="M156.48,58.24s.09.02.12.06c.03.04.04.09.03.14-.17.33-.41.57-.71.7s-.65.21-1.02.23c-.17.02-.33.03-.5.05-.25,0-.5.02-.75.05-.23.03-.46.09-.68.18-.05.02-.1.03-.15.05-.12.05-.23.08-.35.1-.17,0-.3-.05-.41-.14-.11-.09-.21-.21-.29-.34-.23-.37-.47-.73-.7-1.08-.22-.35-.44-.7-.68-1.05-.23-.38-.48-.77-.73-1.15-.05-.07-.1-.13-.15-.2-.35-.6-.77-1.15-1.25-1.66-.15-.12-.31-.22-.48-.3-.02-.02-.03-.02-.05-.02,0-.02,0-.03-.02-.03-.13-.05-.24-.13-.33-.25-.05-.12-.08-.24-.08-.38-.02-.02-.03-.04-.03-.08,0-.08,0-.16-.03-.23,0-.08,0-.17-.02-.25,0-.1,0-.2-.03-.3-.05-.6-.16-1.2-.33-1.81-.27-.74-.68-1.38-1.23-1.93-.38-.4-.77-.79-1.15-1.15-.13-.12-.26-.24-.38-.38-.12-.1-.23-.2-.33-.3-.07-.05-.13-.1-.18-.15v.15s0,.1.03.15c.03.6.12,1.2.25,1.81.02.05.03.1.05.15.02.08.03.17.05.25.02.08.03.15.05.2.03.12.06.25.08.4,0,.35-.05.7-.15,1.05-.12.45-.15.9-.1,1.35.05.18.08.35.09.5,0,.15.01.31.01.48v.7s.03.11.03.23c.03.27.07.59.1.98.03.38.03.67,0,.85-.92.7-1.92,1.21-3.01,1.53-.27.07-.42.03-.46-.1-.04-.13-.01-.28.09-.43.18-.28.35-.62.5-1.02.15-.39.23-.71.25-.94.05-.35.09-.72.12-1.1.05-.64.1-1.14.15-1.5v-.08c.02-.15.03-.26.04-.33,0-.07,0-.12,0-.15,0-.03-.02-.08-.04-.13-.03-.05-.08-.14-.12-.28.03-.13.07-.26.1-.38.1-.32.19-.63.28-.95.03-.17.03-.33,0-.5-.17-.92-.26-1.85-.28-2.79-.15.05-.29.08-.43.1-.12.02-.24.04-.38.08-.38.13-.75.28-1.1.43-.39.18-.77.33-1.17.45-.39.12-.82.13-1.27.05-.05,0-.08-.02-.1-.06-.02-.04-.02-.08,0-.11.18-.22.42-.4.7-.54.28-.14.58-.26.88-.36.27-.1.5-.2.69-.3s.3-.22.34-.35c.03-.08.14-.18.31-.29s.38-.22.61-.34.45-.21.65-.28c0-.02,0-.02.03-.02.1-.03.19-.07.28-.1v-.58c-.02-.65-.06-1.3-.12-1.96v-.08c-.02-.07-.02-.13,0-.2.07-.25.08-.48.04-.7-.04-.22-.1-.43-.19-.65-.05-.12-.1-.23-.15-.35-.15-.65-.17-1.28-.05-1.88l.05-.45c.02-.15.03-.29.05-.43.08-.42.09-.84.02-1.25-.02-.15-.02-.3-.02-.45v-.3c-.05-.57-.09-1.14-.13-1.71,0-.13-.02-.25-.08-.35-.08-.1-.19-.18-.33-.23-.1-.03-.19-.08-.28-.15-.1-.13-.16-.28-.18-.43-.03-.1-.07-.19-.1-.28-.03-.08-.09-.15-.18-.2-.13-.08-.28-.15-.45-.2-.2-.05-.38-.14-.55-.28-.42-.35-.67-.8-.75-1.35,0-.07.02-.11.06-.13.04-.02.09-.02.15,0,.06.02.09.06.09.13h.02c.22.12.43.23.65.33.55.2,1.12.33,1.71.4.3.03.58.05.85.05h.05c.08.02.17.03.28.03.18-.02.36,0,.53.02.13.03.24.08.33.13.08.05.17.12.25.23.03.03.07.08.1.12.05.07.11.13.19.2.08.07.17.11.29.12.2,0,.41-.02.63-.08.08-.03.17-.05.25-.05.03-.02.07-.03.1-.03.27-.07.54-.1.8-.1,1.25,0,2.47.23,3.64.68,1.02.32,1.99.75,2.91,1.3.87.52,1.5,1.24,1.88,2.16.15.43.13.85-.08,1.25-.02.03-.07.15-.15.35-.13.32-.31.73-.53,1.23-.22.5-.43.97-.64,1.41s-.36.71-.46.83c-.77.8-1.67,1.41-2.71,1.83-.27.13-.54.25-.83.35-.3.13-.59.27-.88.4-.55.25-1.08.54-1.58.85-.4.25-.82.45-1.25.6.28.18.54.38.78.6.07.05.13.12.2.2.2.18.4.36.6.53.2.13.4.26.6.38.15.07.29.15.43.25.52.32.84.77.95,1.35.05.25.08.51.1.78,0,.38.06.75.17,1.1.37.84.84,1.6,1.43,2.28.22.29.44.59.65.9.35.5.64,1.04.85,1.63v.02c.12.3.25.59.41.85.16.27.38.49.67.65.08.05.17.08.25.1.18.07.35.18.5.35.03.05.07.1.1.15.05.05.1.11.15.18.1.12.23.19.4.23.72.2,1.45.34,2.21.43ZM143.28,37.9c-.02.12-.03.24-.03.38-.03.27-.06.54-.08.8.02.2.04.4.08.6.03.13.05.27.05.4.12,1.17.21,2.35.28,3.54-.07.15-.09.31-.08.48.02.08.03.17.03.25.45-.22.89-.44,1.33-.68.2-.12.4-.24.6-.38.28-.17.58-.33.88-.5.72-.35,1.46-.68,2.21-.98.23-.08.48-.16.73-.23.55-.1,1.04-.33,1.46-.68.43-.52.74-1.14.93-1.86.07-.22.14-.42.23-.6.12-.42.13-.84.03-1.25,0-.17.03-.32.08-.45.02-.05.03-.12.05-.2.03-.27-.05-.47-.26-.61-.21-.14-.42-.25-.64-.34-.02-.02-.03-.03-.05-.03-.48-.2-.98-.36-1.48-.48-.52-.12-1.04-.22-1.58-.3-.54-.08-1.06-.18-1.58-.3-.48-.12-.96-.27-1.43-.45-.15-.07-.31-.13-.48-.2-.35-.18-.71-.33-1.08-.43-.02,0-.03,0-.05-.02h-.05c.02.15.03.29.05.43.03.3.06.6.08.9,0,.43-.03.87-.1,1.3,0,.02,0,.04-.03.08-.05.43-.07.87-.05,1.3-.02.08-.03.18-.03.28v.23ZM147.9,38c.02.13,0,.26-.02.38-.07.23-.2.43-.39.59s-.4.28-.61.36c-.13.07-.27.13-.4.18-.02,0-.04,0-.08.03-.1.05-.2.08-.3.1-.07,0-.12-.02-.15-.05-.03-.03-.07-.08-.1-.15-.03-.1-.07-.22-.1-.35-.05-.25-.05-.51,0-.78.08-.22.22-.42.4-.6l.03-.03s.03-.03.03-.05c.07-.08.14-.16.23-.23.1-.05.21-.06.33-.02.02-.02.03-.02.05,0,.17.07.33.12.5.17l.02.03c.12.03.23.08.33.15.12.07.2.16.25.28Z"/>
        <path class="cls-1" d="M168.67,33.71c.33.18.65.41.95.68.38.35.8.63,1.25.83.13.05.41.12.84.2.43.08.92.18,1.47.28.2.03.35.13.44.3.09.17.1.34.01.53-.2.38-.45.71-.75.98-.03.02-.07.04-.1.08-.03.03-.07.07-.1.1-.17.15-.32.32-.45.5-.13.2-.25.4-.35.6-.02.03-.03.07-.03.1-.03.07-.07.12-.1.18-.13.38-.33.73-.6,1.03-.12.13-.26.24-.44.33s-.33.04-.46-.13c-.08-.15-.13-.32-.15-.5,0-.08,0-.17-.03-.25-.03-.12-.06-.24-.08-.38-.03-.12-.06-.24-.08-.38-.13-.6-.3-1.2-.5-1.81-.12-.08-.24-.16-.38-.23-.28-.17-.61-.42-.98-.75-.37-.35-.7-.61-1-.78-.15-.07-.29-.1-.4-.11-.12,0-.23,0-.35.01s-.23.03-.35.03-.25-.03-.4-.08c-.29-.13-.57-.23-.85-.29s-.58-.03-.88.09c-.5.25-.93.61-1.28,1.08-.02.02-.02.03-.02.05-.07.07-.13.13-.18.2-.33.33-.63.73-.88,1.18-.52,1.22-.65,2.48-.4,3.79.08.62.33,1.15.73,1.58.4.37.86.61,1.38.73.45.12.9.18,1.35.2.18,0,.37,0,.55.03l.45.05c.4.02.79.07,1.15.15,1.92.45,3.58,1.41,4.97,2.88,1.44,1.54,2.42,3.37,2.96,5.49.25,1.19.23,2.41-.05,3.66-.28,1.29-.66,2.55-1.13,3.79-.2.6-.46,1.15-.78,1.66-.33.47-.74.8-1.23,1-1.07.42-2.16.69-3.26.83-1.12.15-2.18.18-3.19.1-1-.08-2.06-.34-3.16-.78-1.99-.77-3.5-2.19-4.51-4.26-.45-1.1-.62-2.32-.5-3.64.12-.79.28-1.58.5-2.38.02-.13.03-.26.05-.38v-.15c.02-.2.05-.41.1-.63.05-.28.05-.58,0-.88-.05-.27-.06-.54-.03-.83.02-.03.04-.06.08-.08.03-.02.07-.02.1,0,.13.03.27.07.4.1.08.02.18.04.28.08.2.02.4.05.6.1.33.1.68.13,1.03.1h.05c.12-.03.23-.03.35,0s.22.09.3.17c.1.08.18.18.23.29.05.11.03.23-.05.36-.13.18-.29.33-.48.45-.05.03-.09.07-.12.1-.23.17-.44.37-.6.6-.05.12-.11.23-.18.33-.08.17-.17.33-.28.5-.29.42-.45.88-.5,1.38-.05.32-.07.64-.05.98.08.7.27,1.37.55,2.01.03.07.06.14.08.23.27.67.57,1.29.9,1.86.33.57.74,1.03,1.23,1.38.12.08.21.12.29.12s.14-.02.19-.05c.05-.03.11-.05.19-.06.08,0,.17.01.29.06.35.15.76.37,1.23.65.33.2.62.36.85.48.1.05.19.1.28.15.4.23.85.37,1.35.4,1.17.1,2.27-.17,3.29-.8,1.02-.7,1.8-1.67,2.33-2.91.27-.67.51-1.37.73-2.11.03-.13.08-.27.12-.4.23-.62.38-1.25.43-1.91-.02-.74-.17-1.41-.45-2.03-.27-.64-.55-1.22-.85-1.76-.03-.05-.07-.11-.1-.18-.49-1.02-1.16-1.87-2.03-2.56-.5-.32-1.03-.52-1.57-.6-.54-.08-1.1-.12-1.67-.12h-.5c-.07,0-.11-.03-.12-.1h-.35c-.43.02-.86-.06-1.28-.23-.37-.2-.71-.45-1.03-.75-.08-.05-.16-.11-.23-.17-.25-.18-.49-.39-.7-.63-.07-.05-.13-.1-.18-.15-.55-.5-1.04-1.09-1.48-1.76-.89-1.44-1.16-3-.83-4.69.02-.08.07-.13.15-.15h.08c.05-.2.09-.4.12-.6.08-.4.17-.8.25-1.2.03-.08.06-.17.08-.28.08-.49.23-.93.45-1.33.57-.84,1.35-1.3,2.36-1.41,1-.15,2-.2,2.99-.15.94,0,1.82.2,2.66.6Z"/>
        <path class="cls-1" d="M185.17,36.55c.62.32,1.24.68,1.86,1.08.95.6,1.86,1.27,2.71,2.01.47.45.89.94,1.28,1.46.17.22.33.43.5.63.33.38.66.78.98,1.18.15.22.31.43.48.65.28.42.59.81.93,1.18.35.38.46.79.33,1.2-.1.37-.11.73-.03,1.08.05.23.07.47.05.7-.03.37-.09.73-.18,1.08-.07.35-.15.7-.25,1.05-.05.22-.1.43-.15.63-.07.27-.13.53-.18.78-.1.45-.21.9-.33,1.35-.3,1.22-.87,2.3-1.71,3.24-.4.49-.93.85-1.58,1.1-.92.33-1.85.59-2.78.75-.49.08-.97.18-1.46.3-.8.17-1.61.12-2.41-.15-.2-.07-.4-.13-.6-.18-1.1-.3-2.18-.67-3.24-1.1-1.25-.5-2.17-1.38-2.76-2.63-.07-.18-.1-.37-.1-.55v-1.3c.02-.62.02-1.23,0-1.83-.03-1.2-.08-2.41-.12-3.61,0-.25,0-.5-.03-.75,0-.07-.02-.13-.05-.2-.02-.03-.03-.08-.05-.13-.07-.33-.02-.66.15-.98.52-.9,1.09-1.76,1.71-2.58.12-.15.2-.33.25-.53.03-.15.08-.29.15-.43.08-.13.16-.27.23-.4.18-.45.43-.82.75-1.1.37-.3.71-.64,1.03-1,.25-.27.51-.52.78-.75.5-.45,1.04-.84,1.61-1.18.27-.13.58-.23.93-.3.18-.03.37-.08.55-.15.25.13.5.27.75.4ZM191.92,44.57c-.25-.43-.53-.86-.83-1.28-.12-.18-.24-.37-.38-.55-.42-.64-.87-1.25-1.34-1.83-.48-.58-1.04-1.09-1.69-1.5-.15-.08-.29-.18-.43-.3-.33-.28-.73-.48-1.18-.6-.38-.05-.77-.1-1.15-.15-.08,0-.17,0-.25-.02-.45-.07-.86.04-1.23.33-.05.03-.11.08-.18.12-.38.32-.8.58-1.25.78-.55.25-.95.61-1.18,1.08-.59,1.15-1.1,2.33-1.56,3.54-.27.77-.5,1.55-.7,2.33-.08.35-.18.7-.28,1.05-.35,1.04-.4,2.07-.15,3.11.3.95.34,1.9.13,2.83-.02.12,0,.23.05.35v.05c.2.55.54.96,1.03,1.23,1.37.95,2.89,1.49,4.57,1.6.52.02,1.03.02,1.53,0,.32,0,.63-.07.93-.2.6-.27,1.16-.6,1.68-1,.62-.5,1.16-1.08,1.63-1.73.67-1.02,1.28-2.08,1.83-3.19.08-.15.17-.3.25-.45.25-.43.46-.88.63-1.33.17-.45.21-.94.12-1.46.1-1.02-.1-1.96-.6-2.81ZM186.05,47.06c-.12.25-.23.5-.33.75-.15.33-.31.54-.49.63-.17.08-.43.05-.76-.1-.43-.2-.86-.43-1.28-.68-.15-.08-.23-.21-.24-.38,0-.17.03-.33.1-.48s.17-.25.29-.3c.52-.22,1.05-.37,1.61-.45.58-.08,1.01.13,1.28.65-.07.12-.12.23-.18.35Z"/>
        <path class="cls-1" d="M219.74,61.44c-.3.14-.64.09-1.03-.16-.03-.02-.07-.03-.1-.05-.1-.07-.2-.12-.3-.15-.84-.32-1.52-.84-2.06-1.55-.02-.02-.03-.03-.05-.05,0-.02,0-.03-.03-.05-.13-.15-.28-.28-.43-.4s-.33-.18-.55-.18c-.08-.27-.15-.54-.2-.83-.13-.63-.3-1.25-.5-1.86-.17-.47-.36-.94-.58-1.41-.13-.32-.27-.63-.4-.95-.33-.72-.78-1.37-1.33-1.96-.3-.38-.54-.82-.7-1.3-.02-.05-.04-.11-.08-.18-.05-.1-.09-.2-.12-.3-.37-.97-.84-1.89-1.4-2.76-.33-.47-.64-.95-.9-1.45-.22-.38-.44-.75-.68-1.1-.84-1.32-1.71-2.62-2.61-3.89-.44-.58-.89-1.16-1.35-1.73-.33-.38-.65-.78-.95-1.18-.33-.45-.66-.91-.98-1.38-.07-.1-.13-.2-.2-.3-.13-.18-.26-.38-.38-.58-.18-.28-.37-.56-.55-.83-.08-.08-.19-.15-.33-.2-.05-.03-.1-.07-.15-.1-.05.03-.1.07-.15.1v1.63c.02.15.03.31.03.48-.02.5-.02,1,0,1.5.02.2.04.39.08.58.03.18.06.37.08.55,0,.25.02.5.05.75.12.75.08,1.5-.12,2.26-.07.18-.09.38-.08.6v.25c.05.54-.02,1.05-.2,1.55-.03.05-.05.11-.04.18,0,.07.03.13.06.2.17.47.19.94.08,1.43-.1.35-.15.7-.15,1.05v.23c-.07,1.02-.12,2.04-.15,3.06,0,.1,0,.19.02.28.02.1.03.19.03.28,0,.5-.02,1-.05,1.5-.05.59-.1,1.16-.15,1.73-.03.23-.06.47-.08.7.08.05.16.1.23.15.15.08.26.15.33.2.22,1.09.44,2.2.68,3.34-.1.03-.19.08-.28.13-.27.12-.53.23-.78.35-.03,0-.07,0-.1.03-.07.02-.12.04-.15.08-.35.37-.75.64-1.2.8-.15.05-.29.11-.43.18-.22.12-.41.28-.58.48-.13.17-.29.28-.48.34-.18.06-.38.1-.58.11-.08.02-.18.03-.28.05-.07,0-.14-.03-.23-.1-.05-.03-.1-.06-.15-.08.1-.13.2-.25.3-.35.25-.28.48-.58.68-.88.07-.07.11-.15.14-.25.03-.1.02-.19-.01-.28-.05-.15-.06-.29-.03-.41.03-.12.09-.25.18-.36.05-.07.09-.13.12-.2.4-.47.65-1.01.75-1.63.02-.37.02-.74,0-1.13-.02-.15-.03-.29-.03-.43,0-.12,0-.23-.03-.33-.02-.18-.02-.36,0-.53.03-.65.08-1.31.13-1.98v-.2c.02-.28.06-.55.12-.8.15-.52.16-1.02.03-1.5-.03-.17-.06-.33-.08-.5-.02-.13-.03-.27-.05-.4-.2-1.04-.18-2.07.05-3.11.15-.55.22-1.12.2-1.71v-1.03c.05-1.39.04-2.77-.02-4.14-.02-.2-.03-.41-.03-.63.03-.82-.12-1.61-.45-2.36-.07-.13-.09-.28-.08-.45.02-.72-.12-1.41-.4-2.06-.02-.07-.03-.13-.05-.18-.02-.02-.02-.03-.02-.05-.17-.38-.24-.79-.23-1.2.02-.45-.07-.87-.25-1.25-.1-.23-.18-.47-.25-.7.15-.25.36-.33.63-.23.17.07.33.09.5.08.69-.02,1.35.11,1.98.38.22.07.45.09.7.08h.98c.07.15.13.3.2.45.17.33.28.67.33,1,.18,1.04.59,1.96,1.23,2.76.03.03.07.08.1.13.55.84,1.11,1.66,1.68,2.48.32.43.64.87.95,1.3.13.2.28.4.43.6.02.02.03.04.05.08.02.05.04.08.08.1.92.69,1.63,1.53,2.13,2.53.17.28.33.55.5.8.45.72.89,1.45,1.33,2.18.37.6.73,1.19,1.08,1.76,1.02,1.59,2.05,3.16,3.08,4.72.23.33.49.66.78.98.03.03.09.06.16.08s.14.02.19.02c.05-.03.09-.08.12-.14s.05-.11.05-.16c0-.33,0-.67-.03-1-.02-.13-.03-.27-.03-.4-.02-.17-.02-.34-.02-.53-.02-.45-.03-.9-.03-1.35-.03-1.02-.08-2.05-.12-3.08-.03-.6-.08-1.21-.13-1.83-.03-.54-.07-1.07-.1-1.61,0-.23,0-.46.03-.68l.05-.5c0-.45,0-.89-.02-1.33-.02-.22-.03-.43-.05-.63-.02-.18-.02-.38-.02-.58-.03-.42-.05-.84-.05-1.25-.03-.8-.08-1.61-.12-2.43-.03-.37-.1-.73-.2-1.08-.03-.13-.06-.27-.08-.4-.15-.7-.3-1.42-.45-2.16-.07-.3-.13-.62-.2-.95.4-.52.98-.78,1.73-.78.08,0,.17-.03.26-.09.09-.06.17-.12.24-.19.28-.25.6-.36.95-.31.35.04.65.22.9.54-.07.07-.13.13-.2.2-.17.17-.33.34-.5.53-.08.12-.13.27-.15.45-.07.4-.12.81-.15,1.23-.02.12-.03.23-.05.35-.05.54-.08,1.06-.1,1.58-.03.95-.03,1.9.02,2.83.02.55.07,1.1.15,1.66.02.25.04.49.08.73,0,.02,0,.04.02.08v.15c-.02.89,0,1.76.05,2.63.07,1.12.08,2.25.02,3.39-.12,1.97-.13,3.96-.05,5.95v.43c.03.67.11,1.32.23,1.96.05.29.09.57.13.85.07.12.12.23.17.35.12.23.23.47.33.7.1.2.19.41.28.63.22.48.44.96.68,1.43.18.35.38.69.6,1,.17.28.33.56.48.83.03.07.05.14.04.23,0,.08-.03.16-.06.23-.05.1-.12.18-.2.25-.03.03-.06.07-.08.1-.05.45-.23.75-.53.89Z"/>
        <path class="cls-1" d="M223.2,59.52c.25-.4.37-.86.35-1.38,0-.52.08-1.02.23-1.5v-.1c.12-.47.2-.94.25-1.43.03-.22.07-.44.1-.68.02-.13.04-.27.08-.4.03-.2.07-.39.1-.58.07-.62.13-1.23.2-1.83.02-.13.03-.28.05-.43.02-.08.02-.16,0-.23-.18-.8-.16-1.6.08-2.38.03-.13.06-.28.08-.43.12-.52.25-1.04.4-1.56.1-.35.19-.7.28-1.05.08-.37.13-.74.15-1.1.03-.65.08-1.3.12-1.93.02-.37.03-.74.05-1.13.02-.15.03-.31.05-.48.03-.3.05-.6.05-.9-.02-.28-.05-.57-.1-.85-.03-.13-.06-.26-.08-.38,0-.07,0-.12-.02-.18-.05-.13-.06-.26-.03-.38.27-1.04.4-2.09.4-3.16.02-.07.03-.13.03-.2-.02-.74-.17-1.44-.45-2.11-.02-.03-.03-.08-.05-.12-.08-.23-.1-.4-.06-.5.04-.1.17-.2.39-.3.12-.05.23-.11.35-.18.2-.12.4-.22.6-.3.25-.1.5-.19.75-.28.32-.12.63-.24.93-.38.4-.18.81-.38,1.23-.6.18-.1.38-.21.6-.33.12.08.25.16.4.23.17.1.31.18.43.25.05.25.11.49.17.73.15.55.28,1.07.4,1.55.02.13.03.28.03.43,0,.1,0,.21.03.33,0,.07,0,.12.02.18.05.45.12.89.2,1.3.28,1.15.58,2.3.88,3.44.13.54.26,1.06.38,1.58.03.1.06.2.08.3.08.52.28,1,.6,1.43.03.02.05.05.06.09,0,.04,0,.08-.01.11.02.54.13,1.04.35,1.51.05.13.1.27.15.4.07.22.12.43.18.65.05.25.12.5.2.75.1.28.18.58.25.88.12.52.3,1.01.55,1.48.17.27.4.36.7.28.23-.02.48,0,.73.03h.35c.18.02.37.02.55.02.02-.02.03-.02.05-.02.02-.02.03-.03.05-.03.38-.12.67-.12.85-.03.18.1.34.35.48.75-.1.27-.24.43-.43.48-.18.05-.38.06-.58.03-.23-.03-.44-.02-.63.05-.03.1-.06.21-.08.33-.03.23-.11.43-.23.58-.13.12-.33.19-.58.23-.12.02-.24.04-.38.08.02.05.03.11.05.18,0,.13.02.28.08.43.17.42.33.84.5,1.25.49,1.24,1,2.47,1.53,3.69.43.87.91,1.72,1.43,2.56.15.23.29.47.43.7.18.25.19.49.03.73-.22.27-.47.31-.75.12-.03-.02-.07-.04-.1-.08-.1-.07-.2-.12-.3-.15s-.21-.06-.31-.08c-.11-.02-.19,0-.24.03-.13.15-.28.24-.44.26-.16.03-.32.01-.49-.04-.05-.02-.09-.03-.13-.03-.38-.07-.75-.18-1.1-.35-.17-.08-.29-.21-.36-.38-.08-.17-.09-.35-.04-.55.23-1.02.26-2.03.08-3.04-.1-.58-.26-1.16-.48-1.73-.1-.25-.19-.51-.28-.78-.05-.17-.1-.33-.15-.5-.18-.55-.35-1.1-.5-1.66-.05-.3-.13-.5-.24-.59-.11-.09-.31-.13-.62-.11h-1.13c-.58-.02-1.18-.02-1.78,0-1.22.03-2.44.08-3.66.15-.33.03-.67.1-1,.2-.08.03-.17.06-.25.08-.05.02-.09.04-.12.06-.03.03-.06.05-.08.06l-.03.03c0,.12,0,.23-.03.35-.02.22-.02.42-.02.6,0,.07,0,.13.02.18.02.57.07,1.14.15,1.71.12.58.24,1.17.38,1.76.08.38.17.77.25,1.15.02.13,0,.28-.08.43-.15.33-.31.68-.48,1.03-.25.54-.49,1.08-.73,1.63-.07.22-.08.45-.05.7.02.08.05.17.1.25.03.05.06.1.08.14s.02.07,0,.09c-.05.1-.12.2-.23.3s-.2.16-.3.18c-.15.02-.31.03-.48.05-.72.13-1.43.06-2.13-.23-.08-.05-.15-.12-.2-.2-.03-.02-.06-.04-.08-.08.38-.35.7-.73.95-1.13ZM229.27,34.77c-.38.4-.74.79-1.08,1.15-.08.08-.16.18-.23.29-.07.11-.1.21-.1.31.03.82-.07,1.61-.3,2.38-.1.38-.18.78-.25,1.18-.08.49-.12.97-.12,1.46,0,.28.02.57.05.85.02.35.03.71.03,1.08-.03.59-.08,1.17-.15,1.76-.05.52-.09,1.04-.13,1.56-.02.38-.14.71-.38.98-.28.32-.28.57,0,.75.4-.07.8-.13,1.2-.2.89-.15,1.76-.28,2.63-.4.69-.07,1.37-.1,2.06-.1.3-.02.6-.03.9-.05.52,0,.69-.23.5-.7-.07-.22-.13-.44-.2-.65-.17-.43-.32-.88-.45-1.33-.25-.92-.5-1.85-.75-2.78-.2-.72-.4-1.45-.6-2.18-.12-.38-.24-.76-.38-1.13-.03-.13-.08-.27-.13-.4-.08-.25-.16-.5-.23-.75-.33-1.05-.68-2.11-1.03-3.16-.05-.1-.13-.19-.25-.28-.03-.05-.08-.09-.12-.12-.18.17-.35.33-.5.5Z"/>
        <path class="cls-1" d="M259.9,58.52c.52.5.56,1.04.12,1.61-.08.12-.19.21-.33.28-.02.02-.04.03-.08.05-.07.05-.13.09-.2.12-.44.27-.82.62-1.15,1.05-.25.35-.58.41-.98.18-.33-.2-.65-.43-.95-.7-.25-.22-.5-.38-.75-.48s-.55-.12-.9-.05c-.28.05-.58.05-.88,0-.42-.05-.84-.1-1.25-.15-.67-.08-1.35-.15-2.03-.2-1.54-.12-3.08-.19-4.62-.23-.2,0-.41,0-.63-.03-.17-.22-.36-.36-.59-.44-.23-.08-.46-.13-.71-.16-.18-.03-.38-.08-.58-.13-.43-.1-.66-.37-.68-.8.37-.07.74-.13,1.13-.2.12-.02.24-.03.38-.05.02-.13.03-.28.05-.43.05-.28.09-.55.13-.8.02-.13.03-.28.05-.43.03-.33.08-.64.12-.9v-.02c.05-.23.07-.41.06-.54,0-.12-.07-.28-.19-.46.02-.1.04-.21.08-.33.12-.42.23-.84.35-1.28.03-.2.02-.4-.03-.6-.33-1.44-.51-2.89-.53-4.37v-.25c0-.48-.02-.97-.05-1.45-.05-.57-.11-1.13-.18-1.68-.03-.23-.07-.46-.1-.68v-.1c-.03-.1-.04-.18-.03-.25.1-.28.12-.56.06-.83s-.14-.53-.24-.78c-.05-.15-.1-.29-.15-.43-.17-.72-.17-1.4,0-2.03.03-.18.06-.38.08-.58.03-.17.07-.33.1-.5.1-.38.12-.82.05-1.3v-.5c0-.08,0-.19-.02-.33-.2-1.27-.56-2.62-1.08-4.04-.15-.5-.3-.98-.45-1.43-.1-.13-.22-.29-.35-.48-.22-.27-.42-.54-.6-.82-.18-.28-.27-.53-.25-.76.03-.22.1-.35.19-.39.09-.04.21-.06.34-.06.1.02.22,0,.35-.02.08,0,.18.03.3.1.12.07.23.14.33.23,1.19.99,2.51,1.79,3.96,2.41v1.81c0,.23,0,.49.03.78,0,.35,0,.68.03.98v.4c-.1.94-.23,1.86-.4,2.76-.03.2-.07.39-.1.58-.02.1-.03.19-.03.28,0,.07,0,.13-.02.2-.02.13-.03.26-.05.38-.07.29-.1.58-.1.88,0,.23.02.47.05.7.03.12.05.24.05.38.02.08.03.17.03.25,0,.03,0,.08.03.12-.05,1.64.05,3.27.3,4.89.07.35.13.71.2,1.08.02.08.03.16.05.23,0,.07,0,.14.02.23.02.47.06.95.13,1.43.08.47.18.94.28,1.41.05.22.1.43.15.63.02.13.04.28.08.43.07.22.12.44.15.65.03.23.07.46.1.68.08.57.19,1.13.33,1.68.08.43.1.89.05,1.35-.02.15-.03.31-.03.48-.02.07-.03.14-.05.23-.02.07-.03.14-.03.23,0,.42.07.69.21.83.14.13.43.21.87.23.32.02.64.04.98.08.47.05.93.08,1.38.1.27,0,.54,0,.8-.03.22-.03.44-.05.68-.05,1.42-.03,2.84.1,4.26.4.52.08,1.05.08,1.61,0,.12,0,.23,0,.35-.03.23-.02.46-.05.68-.1.08-.02.18-.04.28-.08Z"/>
        <path class="cls-1" d="M270.11,61.34c-.15.08-.38.05-.68-.09-.44-.18-.87-.37-1.3-.55-.43-.2-.88-.38-1.33-.55-.15-.07-.3-.11-.45-.13s-.28-.05-.4-.1c-.25-.08-.43-.23-.54-.43-.11-.2-.18-.44-.21-.73.15-.07.3-.12.45-.18.27-.1.54-.2.8-.3.15-.23.23-.48.23-.74s-.02-.51-.08-.76c-.03-.17-.05-.34-.05-.53-.02-.08-.03-.17-.05-.25-.02-.08-.02-.17-.02-.25-.07-.95-.13-1.91-.18-2.86v-.53c-.02-.32-.03-.63-.05-.93-.07-.67-.09-1.34-.08-2.01,0-.45,0-.91-.03-1.38-.08-.8-.05-1.61.1-2.41.05-.4.05-.8,0-1.2-.02-.18-.03-.37-.05-.55-.03-1.47-.1-2.94-.2-4.42-.05-.62-.13-1.23-.23-1.83-.22-1.04-.29-2.09-.2-3.16.02-.27-.03-.53-.15-.78-.03-.07-.1-.12-.19-.17-.09-.05-.18-.08-.26-.08-.37,0-.69.02-.98.05-.17.02-.37.03-.6.03l-.45.05c-.23.03-.48.05-.73.05h-.59s-.1,0-.16-.01c-.07,0-.18-.02-.35-.04-.85-.07-1.56.19-2.13.78-.02.02-.04.03-.08.05-.12.1-.21.21-.28.33-.23.42-.63.54-1.18.38-.02-.03-.04-.08-.08-.13-.1-.1-.18-.23-.25-.4-.15-.38-.29-.77-.43-1.15-.1-.28-.21-.57-.33-.85-.05-.15-.13-.29-.25-.43-.32-.32-.32-.67,0-1.05.05.02.1.03.15.03.1.03.22.07.35.1.07.02.14.03.23.05.12.05.24.08.36.1.12.02.25,0,.39-.05.03-.02.08-.02.12-.01.05,0,.1.02.15.04.03.02.07.03.1.03.17.05.33.09.48.12.2.05.4.1.6.15.05.02.1.03.15.03.22.07.44.12.68.15h.13c.4.05.8.06,1.2.03.23-.02.41-.04.53-.08.12-.03.22-.07.3-.1s.18-.07.3-.1c.12-.03.28-.07.5-.1.17-.03.33-.06.5-.08.22-.05.43-.08.65-.1.2-.03.37-.06.5-.08.13-.03.32-.06.55-.08l.05-.1c.05-.05.08-.09.08-.13v-.68c.05-.55.03-1.1-.05-1.63-.15-.69-.36-1.36-.63-2.03-.05-.1-.09-.2-.13-.3-.28-.63-.75-1.07-1.4-1.3-.5-.22-.84-.61-1.03-1.18.07-.02.12-.03.17-.05.13-.05.25-.08.35-.1s.19-.03.28-.05c.17,0,.32-.03.45-.1.38-.15.78-.22,1.18-.2.13,0,.28,0,.43-.03.65-.07,1.3-.19,1.96-.38.37-.1.66-.11.88-.04.22.08.43.26.65.56-.05.08-.1.16-.15.23-.12.17-.22.34-.3.53h-.03c-.2.47-.35.94-.45,1.43-.05.37-.21.65-.48.85-.25.17-.33.41-.25.73.05.33.08.68.1,1.03.02.18.03.37.05.55.07.64.14,1.26.23,1.88.02.13.07.22.16.26.09.04.2.06.31.06.23-.02.47-.03.7-.05.3-.03.61-.06.93-.08.38-.02.78-.02,1.18-.02.35-.02.7-.03,1.05-.05.08,0,.17-.02.25-.05.05-.02.1-.03.15-.05-.05-.22-.1-.44-.15-.68.7-.08,1.31.16,1.83.73.32.38.59.79.83,1.2.23.4.51.79.83,1.15.17.2.3.43.41.68.11.25.16.47.16.65h-.6c-.49,0-.96-.03-1.43-.08-.25-.05-.46-.17-.63-.35-.17-.18-.32-.4-.45-.65-.13-.02-.27-.04-.4-.08-.32-.07-.64-.08-.95-.05-.42.03-.84.06-1.25.08-.92.03-1.82.16-2.71.38.02.25.03.49.05.73.02.54.05,1.04.1,1.53.05.62.11,1.24.17,1.86.03.33.07.67.1,1,.08.75.16,1.5.23,2.26.02.17.03.33.05.5.02.27.04.53.08.78.03.38.08.77.12,1.15.02.18.04.36.08.53.03.28.07.56.1.83.08.64.15,1.27.2,1.91.05.57.09,1.14.13,1.71.02.33.04.67.08,1,.02.22.03.43.05.65.02.18.03.38.05.58.02.23.03.47.05.7.02.22.03.43.05.65,0,.17,0,.33.03.5.03.2.06.41.08.63.02.38.07.77.15,1.15.13.55.19,1.11.18,1.68-.02.1,0,.21.03.33.02.05.02.11.02.18.02.13.04.27.08.4.07.3.08.59.03.88-.08.5,0,.96.25,1.38.18.37.37.74.55,1.1.08.15.17.31.25.48-.13.33-.28.54-.43.61Z"/>
        <path class="cls-1" d="M280.02,58.92c.03.35.07.7.1,1.05.07.75.12,1.5.18,2.26,0,.13,0,.27.02.4.02.28.02.54.01.75,0,.22-.07.38-.19.48-.87.17-1.68.36-2.43.58s-1.46.56-2.13,1.03c-.67-.7-.64-1.4.08-2.11.18-.17.33-.36.44-.59s.15-.5.11-.82c0-.13,0-.28.02-.43.02-.08.03-.17.03-.25.13-.02.28-.03.43-.05.08-.02.18-.03.3-.05.13-.3.27-.62.4-.95.38-.84.74-1.7,1.08-2.58.1-.37.14-.77.12-1.2v-.43c.02-.32.02-.64,0-.98v-.63c.02-.12.03-.23.03-.33v-.35s.02-.35.05-.92.08-1.24.12-2.04c.05-.8.1-1.59.15-2.37.05-.78.1-1.41.15-1.89.1-.97.15-2.12.15-3.44.03-2.06.05-4.12.05-6.2,0-.5,0-1.01-.02-1.53-.02-.84-.02-1.68,0-2.53.02-.23.07-.47.16-.71s.21-.44.34-.59c.32-.33.64-.59.98-.78.12-.08.23-.17.35-.25.08.12.17.23.25.33.17.2.31.39.43.58.13.2.26.41.38.63.05.1.11.21.18.33-.12.23-.23.46-.33.68-.25.5-.48,1-.68,1.48-.17.4-.27.83-.3,1.28-.08,2.58-.14,5.15-.18,7.73-.1,1.59-.18,2.96-.25,4.13-.07,1.16-.13,2.34-.2,3.52-.07,1.19-.12,2.2-.17,3.04-.02.3-.03.59-.03.88,0,.17,0,.33-.03.5-.02.55-.03,1.11-.05,1.68-.02.5-.03,1-.05,1.5-.02.02-.02.04-.02.08-.02.03-.03.07-.03.1Z"/>
        <path class="cls-1" d="M286.77,32.38c.08-.05.15-.07.2-.05.18.05.35.06.51.02.16-.03.31-.09.46-.17.12-.05.23-.09.35-.13.32-.1.42-.29.3-.58.28-.2.51-.3.68-.3s.33.12.5.35c.3.35.64.58,1.02.7.38.12.77.19,1.19.23.05.02.11.03.18.03.53.07,1.07.15,1.61.25.28.03.56.08.83.12.1.02.21.03.33.03.03,0,.08,0,.13.02.28.02.57.04.85.08.69.08,1.38.14,2.08.17.32,0,.63-.06.95-.17.07-.02.12-.03.18-.05.47-.17.95-.21,1.46-.12.18.03.4,0,.65-.13.13-.05.28-.1.43-.15.1.07.24.15.43.25.13.07.27.14.4.23-.03.18-.06.36-.08.53-.08.4-.13.79-.15,1.18,0,.25.04.5.12.75.02.08.03.17.05.25.03.1.07.2.1.3.02.05.03.09.05.12-.22.22-.43.32-.65.31-.22,0-.44-.06-.65-.16-.02-.02-.04-.03-.08-.03-.52-.2-1.04-.41-1.56-.63-.35-.15-.7-.29-1.05-.43-.18-.07-.36-.14-.53-.23-.59-.25-1.18-.46-1.78-.63-.79-.17-1.59-.27-2.41-.3-1.05-.08-2.11-.13-3.16-.15-.17.02-.33.06-.5.12-.07.02-.13.03-.2.05-.05.35-.09.69-.13,1.03-.12.74-.18,1.46-.18,2.16s.04,1.35.13,2.03c.05.45.08.9.1,1.36.03.55.04,1.1.02,1.66v2.13c.08.03.18.07.28.1.18.08.38.15.6.2.72.1,1.44.2,2.16.3.27.03.53.08.78.12h.17c.35.02.7.03,1.05.05.8.02,1.61.05,2.41.1.49.03.96.09,1.43.18.25.03.5.07.75.1h.25c.12,0,.23,0,.33.02.05,0,.11,0,.17.03.2.02.39.06.56.14.18.08.32.21.44.41.08.13.19.24.33.33.07.03.12.08.15.13-.13.35-.28.72-.43,1.1-.1.12-.23.16-.38.14s-.3-.09-.45-.19c-.18-.12-.37-.24-.55-.38-.42-.28-.84-.57-1.28-.85-.07-.03-.15-.06-.26-.09-.11-.03-.18-.02-.21.01-.15.13-.3.21-.46.23s-.31,0-.46-.03c-.05,0-.1,0-.15-.02-.28-.02-.56-.05-.83-.1-.3-.07-.6-.12-.9-.15-1.09-.08-2.18-.13-3.29-.13-.5,0-1.02.03-1.56.1l-.75.05c-.03.08-.06.17-.08.25-.18.45-.25.95-.2,1.5.03.3,0,.62-.08.95-.02.13-.03.27-.05.4-.02.03-.02.08-.02.13-.05.37-.11.74-.18,1.1-.05.2-.08.41-.1.63-.03.49-.18.95-.43,1.41-.25.49-.43,1.01-.53,1.58-.02.13-.04.27-.08.4-.08.33-.15.67-.2,1-.05.32-.12.63-.2.93-.05.28.04.46.28.53.22.08.43.13.65.15h.05c.62-.02,1.23.07,1.83.25.18.05.38.07.58.05.13-.02.26-.02.38,0,.27.03.53.07.78.1.32.05.64.09.95.13.52.05,1.04.06,1.56.02.45-.03.78.14.98.53.17.27.4.38.7.35.15,0,.31,0,.48.03.28.02.56,0,.83-.03.42-.08.83-.22,1.23-.4.18-.07.33-.43.45-1.1.37-.03.63,0,.8.11.17.11.32.34.45.69.18.4.39.79.63,1.18.12.17.18.32.18.46s-.08.28-.25.41c-.17.12-.3.26-.4.43-.17.23-.38.38-.63.44-.25.06-.48.06-.68.01-1.34-.25-2.68-.41-4.04-.48-.2-.02-.41-.03-.63-.05-.7-.05-1.41-.12-2.11-.2-.64-.08-1.26-.15-1.88-.2-.47-.03-.93-.04-1.38-.03-.29,0-.57,0-.85-.02-.25,0-.51-.03-.78-.08-.37-.08-.65.08-.85.48-.08.17-.18.34-.28.53-.03.07-.07.13-.1.2-.03,0-.06,0-.08.02-.17.02-.33.02-.49.01-.16,0-.31-.08-.44-.21,0-.02,0-.03-.03-.05-.12-.12-.2-.21-.25-.29-.05-.08-.07-.16-.05-.24.02-.08.06-.21.13-.38v-.05c.12-.32.19-.64.23-.98v-.08c.05-.4.1-.81.15-1.23.02-.18.04-.38.08-.58.22-.12.37-.28.45-.5.08-.22.14-.45.18-.7,0-.03,0-.06.03-.08.05-.37.12-.73.2-1.08.07-.33.13-.68.2-1.03v-.05c.07-.32.12-.64.15-.95.07-.62.12-1.24.15-1.86.02-.47.03-.94.05-1.43.02-.87.06-1.74.13-2.61.17-1.59.26-3.18.28-4.77,0-.3.03-.6.1-.9.03-.17.07-.33.1-.48.03-.25.07-.5.1-.75.1-.62.17-1.25.23-1.88.03-.63.04-1.26.03-1.88v-1.2c0-.27-.09-.5-.28-.7-.33-.38-.66-.79-.98-1.23-.13-.18-.28-.38-.43-.58.08-.02.15-.03.2-.05ZM287.29,58.55c.5.47.95.55,1.33.25-.49-.54-.93-.62-1.33-.25Z"/>
        <path class="cls-1" d="M316.19,33.71c.33.18.65.41.95.68.38.35.8.63,1.25.83.13.05.41.12.84.2.43.08.92.18,1.47.28.2.03.35.13.44.3s.1.34.01.53c-.2.38-.45.71-.75.98-.03.02-.07.04-.1.08l-.1.1c-.17.15-.32.32-.45.5-.13.2-.25.4-.35.6-.02.03-.03.07-.03.1-.03.07-.07.12-.1.18-.13.38-.33.73-.6,1.03-.12.13-.26.24-.44.33-.18.08-.33.04-.46-.13-.08-.15-.13-.32-.15-.5,0-.08,0-.17-.02-.25-.03-.12-.06-.24-.08-.38-.03-.12-.06-.24-.08-.38-.13-.6-.3-1.2-.5-1.81-.12-.08-.24-.16-.38-.23-.28-.17-.61-.42-.98-.75-.37-.35-.7-.61-1-.78-.15-.07-.28-.1-.4-.11-.12,0-.23,0-.35.01-.12.02-.23.03-.35.03s-.25-.03-.4-.08c-.28-.13-.57-.23-.85-.29-.29-.06-.58-.03-.88.09-.5.25-.93.61-1.28,1.08-.02.02-.03.03-.03.05-.07.07-.12.13-.18.2-.33.33-.63.73-.88,1.18-.52,1.22-.65,2.48-.4,3.79.08.62.33,1.15.73,1.58.4.37.86.61,1.38.73.45.12.9.18,1.35.2.18,0,.37,0,.55.03l.45.05c.4.02.79.07,1.15.15,1.92.45,3.58,1.41,4.97,2.88,1.44,1.54,2.42,3.37,2.96,5.49.25,1.19.23,2.41-.05,3.66-.28,1.29-.66,2.55-1.13,3.79-.2.6-.46,1.15-.78,1.66-.33.47-.74.8-1.23,1-1.07.42-2.16.69-3.26.83-1.12.15-2.18.18-3.19.1-1-.08-2.06-.34-3.16-.78-1.99-.77-3.5-2.19-4.52-4.26-.45-1.1-.62-2.32-.5-3.64.12-.79.28-1.58.5-2.38.02-.13.03-.26.05-.38v-.15c.02-.2.05-.41.1-.63.05-.28.05-.58,0-.88-.05-.27-.06-.54-.02-.83.02-.03.04-.06.08-.08.03-.02.07-.02.1,0,.13.03.27.07.4.1.08.02.18.04.28.08.2.02.4.05.6.1.33.1.68.13,1.03.1h.05c.12-.03.23-.03.35,0,.12.03.22.09.3.17.1.08.18.18.23.29s.03.23-.05.36c-.13.18-.29.33-.48.45-.05.03-.09.07-.13.1-.23.17-.43.37-.6.6-.05.12-.11.23-.18.33-.08.17-.18.33-.28.5-.28.42-.45.88-.5,1.38-.05.32-.07.64-.05.98.08.7.27,1.37.55,2.01.03.07.06.14.08.23.27.67.57,1.29.9,1.86.33.57.74,1.03,1.23,1.38.12.08.21.12.29.12s.14-.02.19-.05c.05-.03.11-.05.19-.06.08,0,.17.01.29.06.35.15.76.37,1.23.65.33.2.62.36.85.48.1.05.19.1.28.15.4.23.85.37,1.35.4,1.17.1,2.27-.17,3.29-.8,1.02-.7,1.8-1.67,2.33-2.91.27-.67.51-1.37.73-2.11.03-.13.08-.27.12-.4.23-.62.38-1.25.43-1.91-.02-.74-.17-1.41-.45-2.03-.27-.64-.55-1.22-.85-1.76-.03-.05-.07-.11-.1-.18-.49-1.02-1.16-1.87-2.03-2.56-.5-.32-1.02-.52-1.57-.6-.54-.08-1.1-.12-1.67-.12h-.5c-.07,0-.11-.03-.13-.1h-.35c-.44.02-.86-.06-1.28-.23-.37-.2-.71-.45-1.03-.75-.08-.05-.16-.11-.23-.17-.25-.18-.48-.39-.7-.63-.07-.05-.12-.1-.18-.15-.55-.5-1.04-1.09-1.48-1.76-.89-1.44-1.16-3-.83-4.69.02-.08.07-.13.15-.15h.08c.05-.2.09-.4.12-.6.08-.4.17-.8.25-1.2.03-.08.06-.17.08-.28.08-.49.23-.93.45-1.33.57-.84,1.35-1.3,2.36-1.41,1-.15,2-.2,2.98-.15.94,0,1.82.2,2.66.6Z"/>
      </g>
    </g>
  </g>
</svg>